<?xml version="1.0" encoding="utf-8"?>
<!-- Generator: Adobe Illustrator 16.0.3, SVG Export Plug-In . SVG Version: 6.00 Build 0)  -->
<!DOCTYPE svg PUBLIC "-//W3C//DTD SVG 1.1//EN" "http://www.w3.org/Graphics/SVG/1.1/DTD/svg11.dtd">
<svg version="1.1" id="Capa_1" xmlns="http://www.w3.org/2000/svg" xmlns:xlink="http://www.w3.org/1999/xlink" x="0px" y="0px"
	 width="951.096px" height="226.771px" viewBox="0 0 951.096 226.771" enable-background="new 0 0 951.096 226.771"
	 xml:space="preserve">
<g>
	<circle fill="#FFFFFF" cx="106.576" cy="113.844" r="70.47"/>
	<g>
		<path fill="#FFFFFF" d="M260.137,108.078v9.782h-22.184v41.75h-10.747V63.159h38.305v9.783h-27.558v35.136H260.137z"/>
		<path fill="#FFFFFF" d="M308.362,105.873v9.646H284.8v34.309h28.936v9.783h-39.683V63.159h39.683v9.783H284.8v32.931H308.362z"/>
		<path fill="#FFFFFF" d="M323.654,159.61V63.159h10.747v86.668h27.558v9.783H323.654z"/>
		<path fill="#FFFFFF" d="M380.833,63.159v96.451h-10.748V63.159H380.833z"/>
		<path fill="#FFFFFF" d="M412.936,63.159c15.156,0,21.633,8.956,21.633,23.562v11.574c0,15.294-7.165,23.286-22.46,23.286h-9.507
			v38.029h-10.748V63.159H412.936z M412.109,111.935c7.992,0,11.85-3.72,11.85-12.951V86.169c0-8.818-3.169-13.228-11.022-13.228
			h-10.334v38.993H412.109z"/>
		<path fill="#FFFFFF" d="M477.28,105.873v9.646h-23.562v34.309h28.936v9.783h-39.683V63.159h39.683v9.783h-28.936v32.931H477.28z"
			/>
		<path fill="#FFFFFF" d="M535.148,86.445v8.681h-10.196v-9.231c0-8.681-3.444-13.917-11.299-13.917
			c-7.716,0-11.298,5.236-11.298,13.917v50.98c0,8.681,3.582,13.917,11.298,13.917c7.854,0,11.299-5.236,11.299-13.917v-12.538
			h10.196v11.987c0,14.605-6.89,24.25-21.771,24.25c-14.743,0-21.633-9.645-21.633-24.25V86.445c0-14.605,6.89-24.251,21.633-24.251
			C528.258,62.194,535.148,71.839,535.148,86.445z"/>
		<path fill="#FFFFFF" d="M555.125,136.875c0,8.681,3.445,13.917,11.299,13.917c7.716,0,11.161-5.236,11.161-13.917V63.159h10.059
			v73.165c0,14.605-6.752,24.389-21.633,24.389c-14.743,0-21.495-9.783-21.495-24.389V63.159h10.609V136.875z"/>
		<path fill="#FFFFFF" d="M609.136,140.182l-3.721,19.428h-9.92l18.463-96.451h15.57l18.463,96.451h-10.747l-3.721-19.428H609.136z
			 M610.514,130.95h21.494l-10.885-55.666L610.514,130.95z"/>
		<path fill="#FFFFFF" d="M678.993,63.159c15.02,0,21.908,9.094,21.908,23.975v48.64c0,14.743-6.889,23.837-21.908,23.837h-22.597
			V63.159H678.993z M678.855,149.827c7.717,0,11.437-4.822,11.437-13.641V86.583c0-8.818-3.72-13.641-11.574-13.641h-11.574v76.885
			H678.855z"/>
		<path fill="#FFFFFF" d="M732.454,63.159c15.156,0,21.494,7.716,21.494,22.046v7.854c0,10.61-3.72,17.224-11.987,19.842
			c8.818,2.618,12.125,9.783,12.125,20.117v15.019c0,4.271,0.138,8.268,1.93,11.574h-10.886c-1.24-2.756-1.791-5.236-1.791-11.712
			v-15.157c0-10.885-5.098-14.329-14.055-14.329h-7.578v41.198h-10.747V63.159H732.454z M729.698,108.628
			c8.543,0,13.641-2.756,13.641-13.228v-9.231c0-8.681-3.169-13.228-11.161-13.228h-10.472v35.687H729.698z"/>
		<path fill="#FFFFFF" d="M764.418,86.445c0-14.743,7.303-24.251,22.046-24.251c14.882,0,22.185,9.508,22.185,24.251v49.879
			c0,14.605-7.303,24.25-22.185,24.25c-14.743,0-22.046-9.645-22.046-24.25V86.445z M775.029,136.875
			c0,8.818,3.72,13.917,11.436,13.917c7.854,0,11.437-5.099,11.437-13.917v-50.98c0-8.681-3.582-13.917-11.437-13.917
			c-7.716,0-11.436,5.236-11.436,13.917V136.875z"/>
		<path fill="#FFFFFF" d="M860.592,86.307v2.618h-10.196v-3.169c0-8.681-3.307-13.779-11.023-13.779
			c-7.716,0-11.022,5.099-11.022,13.641c0,21.633,32.38,23.7,32.38,50.844c0,14.605-7.027,24.112-21.771,24.112
			s-21.633-9.507-21.633-24.112v-5.512h10.059v6.063c0,8.681,3.583,13.779,11.299,13.779s11.299-5.099,11.299-13.779
			c0-21.494-32.242-23.562-32.242-50.705c0-14.881,6.889-24.113,21.356-24.113C853.703,62.194,860.592,71.702,860.592,86.307z"/>
		<path fill="#FFFFFF" d="M889.801,80.658c-3.582,2.205-8.267,3.858-13.365,4.134v-8.818c10.472-0.413,14.055-6.063,16.535-12.814
			h7.44v96.451h-10.61V80.658z"/>
	</g>
	<g>
		<path fill="#3FA8CD" d="M137.238,106.882c-4.739,0-8.916,2.598-11.337,6.508h22.67
			C146.143,109.48,141.972,106.882,137.238,106.882z"/>
		<path fill="#3FA8CD" d="M87.94,97.399c0-3.484-2.831-6.326-6.319-6.326H62.359v12.65h19.262
			C85.11,103.723,87.94,100.883,87.94,97.399z"/>
		<path fill="#3FA8CD" d="M85.094,116.627h-3.473H62.359v18.317h22.735c5.055,0,9.16-4.107,9.16-9.157
			C94.254,120.742,90.149,116.627,85.094,116.627z"/>
		<path fill="#3FA8CD" d="M106.58,31.132c-45.431,0-82.254,36.828-82.254,82.258c0,45.432,36.824,82.249,82.254,82.249
			c45.425,0,82.253-36.817,82.253-82.249C188.833,67.96,152.005,31.132,106.58,31.132z M122.775,82.89
			c0-1.09,0.886-1.977,1.984-1.977h23.473c1.095,0,1.983,0.887,1.983,1.977v5.892c0,1.097-0.888,1.979-1.983,1.979h-23.473
			c-1.098,0-1.984-0.882-1.984-1.979V82.89z M84.812,147.852H51.954c-1.38,0-2.501-1.116-2.501-2.495V80.667
			c0-1.389,1.121-2.502,2.501-2.502h29.413c10.541,0,19.307,8.379,19.481,18.908c0.064,3.941-1.063,7.609-3.04,10.691
			c5.676,4.021,9.384,10.639,9.348,18.114C107.112,138.07,97.006,147.852,84.812,147.852z M163.7,121.833
			c0,1.426-1.161,2.586-2.586,2.586h-37.113c1.35,6.455,6.768,11.284,13.236,11.284c3.423,0,6.434-1.126,8.892-3.52
			c0.204-0.197,0.478-0.313,0.767-0.313l13.005,0.035c0.828,0,1.371,0.862,1.013,1.609c-0.495,1.012-1.057,2.003-1.67,2.949
			c-4.923,7.605-13.151,12.146-22.007,12.146c-14.596,0-26.468-12.249-26.468-27.314c0-15.066,11.872-27.331,26.468-27.331
			c14.592,0,26.462,12.265,26.462,27.331V121.833z"/>
	</g>
</g>
</svg>
