<?xml version="1.0" encoding="utf-8"?>
<!-- Generator: Adobe Illustrator 16.0.3, SVG Export Plug-In . SVG Version: 6.00 Build 0)  -->
<!DOCTYPE svg PUBLIC "-//W3C//DTD SVG 1.1//EN" "http://www.w3.org/Graphics/SVG/1.1/DTD/svg11.dtd">
<svg version="1.1" id="Capa_1" xmlns="http://www.w3.org/2000/svg" xmlns:xlink="http://www.w3.org/1999/xlink" x="0px" y="0px"
	 width="951.096px" height="226.772px" viewBox="0 0 951.096 226.772" enable-background="new 0 0 951.096 226.772"
	 xml:space="preserve">
<g>
	<circle fill="#FFFFFF" cx="106.576" cy="125.263" r="65.803"/>
	<g>
		<path fill="#FFFFFF" d="M248.288,75.109c15.157,0,21.633,8.956,21.633,23.562v11.574c0,15.294-7.165,23.286-22.459,23.286h-9.508
			v38.029h-10.747V75.109H248.288z M247.461,123.886c7.991,0,11.85-3.72,11.85-12.952V98.12c0-8.818-3.169-13.228-11.023-13.228
			h-10.334v38.994H247.461z"/>
		<path fill="#FFFFFF" d="M289.071,75.109v96.451h-10.748V75.109H289.071z"/>
		<path fill="#FFFFFF" d="M321.173,75.109c15.156,0,21.633,8.956,21.633,23.562v11.574c0,15.294-7.165,23.286-22.46,23.286h-9.507
			v38.029h-10.748V75.109H321.173z M320.346,123.886c7.992,0,11.85-3.72,11.85-12.952V98.12c0-8.818-3.169-13.228-11.022-13.228
			h-10.334v38.994H320.346z"/>
		<path fill="#FFFFFF" d="M385.517,117.823v9.645h-23.562v34.309h28.936v9.783h-39.683V75.109h39.683v9.783h-28.936v32.931H385.517z
			"/>
		<path fill="#FFFFFF" d="M423.406,75.109c15.02,0,21.908,9.094,21.908,23.975v48.639c0,14.743-6.889,23.837-21.908,23.837h-22.597
			V75.109H423.406z M423.268,161.777c7.717,0,11.437-4.823,11.437-13.641V98.533c0-8.818-3.72-13.641-11.574-13.641h-11.574v76.885
			H423.268z"/>
		<path fill="#FFFFFF" d="M489.68,117.823v9.645h-23.562v34.309h28.936v9.783h-39.683V75.109h39.683v9.783h-28.936v32.931H489.68z"
			/>
		<path fill="#FFFFFF" d="M546.721,98.257v2.618h-10.196v-3.169c0-8.681-3.307-13.779-11.022-13.779s-11.023,5.098-11.023,13.641
			c0,21.633,32.38,23.7,32.38,50.843c0,14.605-7.026,24.113-21.77,24.113s-21.633-9.507-21.633-24.113V142.9h10.059v6.063
			c0,8.681,3.582,13.779,11.298,13.779c7.717,0,11.299-5.098,11.299-13.779c0-21.495-32.242-23.562-32.242-50.706
			c0-14.881,6.89-24.113,21.357-24.113C539.833,74.145,546.721,83.652,546.721,98.257z"/>
		<path fill="#FFFFFF" d="M566.975,75.109v96.451h-10.748V75.109H566.975z"/>
		<path fill="#FFFFFF" d="M620.572,98.395v8.268h-10.195v-8.818c0-8.681-3.445-13.917-11.299-13.917
			c-7.716,0-11.299,5.236-11.299,13.917v50.981c0,8.681,3.583,13.917,11.299,13.917c7.854,0,11.299-5.236,11.299-13.917v-19.29
			h-9.921v-9.645h20.116v28.384c0,14.605-6.889,24.25-21.77,24.25c-14.743,0-21.633-9.645-21.633-24.25V98.395
			c0-14.605,6.89-24.25,21.633-24.25C613.683,74.145,620.572,83.79,620.572,98.395z"/>
		<path fill="#FFFFFF" d="M640.274,171.56h-9.645V75.109h13.641l22.321,69.72v-69.72h9.508v96.451h-11.161l-24.664-77.987V171.56z"
			/>
		<path fill="#FFFFFF" d="M728.871,98.257v2.618h-10.196v-3.169c0-8.681-3.307-13.779-11.023-13.779
			c-7.716,0-11.022,5.098-11.022,13.641c0,21.633,32.38,23.7,32.38,50.843c0,14.605-7.027,24.113-21.771,24.113
			s-21.633-9.507-21.633-24.113V142.9h10.059v6.063c0,8.681,3.583,13.779,11.299,13.779s11.299-5.098,11.299-13.779
			c0-21.495-32.242-23.562-32.242-50.706c0-14.881,6.889-24.113,21.356-24.113C721.981,74.145,728.871,83.652,728.871,98.257z"/>
		<path fill="#FFFFFF" d="M800.38,172.938v7.854h-65.725v-7.854H800.38z"/>
		<path fill="#FFFFFF" d="M807.405,98.395c0-14.743,7.303-24.25,22.046-24.25c14.882,0,22.185,9.507,22.185,24.25v49.741
			c0,14.743-7.303,24.388-22.185,24.388c-14.743,0-22.046-9.645-22.046-24.388V98.395z M818.015,148.825
			c0,8.681,3.72,13.917,11.436,13.917c7.854,0,11.437-5.236,11.437-13.917V97.844c0-8.818-3.582-14.054-11.437-14.054
			c-7.716,0-11.436,5.236-11.436,14.054V148.825z"/>
	</g>
	<g>
		<path fill="#3FA8CD" d="M132.464,105.316c-3.215,0-5.816-2.598-5.816-5.79c0-3.196,2.601-5.781,5.816-5.781
			c3.209,0,5.815,2.585,5.815,5.781C138.28,102.719,135.674,105.316,132.464,105.316L132.464,105.316z M106.58,150.02
			c-13.75,0-24.903-11.08-24.903-24.759c0-13.675,11.153-24.757,24.903-24.757c13.753,0,24.902,11.082,24.902,24.757
			C131.482,138.94,120.333,150.02,106.58,150.02L106.58,150.02z M144.384,96.825c-0.888-2.253-1.933-3.859-3.633-5.544
			c-1.695-1.683-3.314-2.724-5.577-3.605c-1.704-0.657-4.276-1.439-9.004-1.65c-5.114-0.239-6.638-0.289-19.59-0.289
			c-12.948,0-14.483,0.05-19.596,0.289c-4.73,0.211-7.296,0.993-9.004,1.65c-2.264,0.882-3.878,1.923-5.572,3.605
			c-1.699,1.685-2.751,3.291-3.628,5.544c-0.667,1.702-1.456,4.254-1.674,8.955c-0.231,5.089-0.279,6.608-0.279,19.481
			c0,12.872,0.048,14.404,0.279,19.486c0.219,4.699,1.007,7.256,1.674,8.949c0.876,2.252,1.929,3.863,3.628,5.536
			c1.694,1.697,3.308,2.748,5.572,3.622c1.708,0.652,4.274,1.447,9.004,1.658c5.113,0.225,6.648,0.28,19.596,0.28
			c12.952,0,14.476-0.056,19.59-0.28c4.729-0.211,7.3-1.006,9.004-1.658c2.263-0.874,3.882-1.925,5.577-3.622
			c1.7-1.672,2.746-3.284,3.633-5.536c0.657-1.693,1.451-4.25,1.659-8.949c0.24-5.083,0.294-6.615,0.294-19.486
			c0-12.873-0.054-14.392-0.294-19.481C145.835,101.08,145.042,98.527,144.384,96.825L144.384,96.825z"/>
		<path fill="#3FA8CD" d="M106.58,109.194c-8.931,0-16.168,7.196-16.168,16.067c0,8.875,7.237,16.071,16.168,16.071
			c8.925,0,16.161-7.196,16.161-16.071C122.741,116.39,115.504,109.194,106.58,109.194L106.58,109.194z"/>
		<path fill="#3FA8CD" d="M154.78,145.14c-0.24,5.133-1.057,8.636-2.258,11.703c-1.236,3.178-2.895,5.861-5.591,8.541
			c-2.697,2.682-5.397,4.331-8.592,5.562c-3.084,1.195-6.604,2.008-11.766,2.238c-5.173,0.233-6.822,0.294-19.994,0.294
			c-13.172,0-14.822-0.061-19.995-0.294c-5.158-0.23-8.687-1.043-11.772-2.238c-3.188-1.231-5.89-2.879-8.585-5.562
			c-2.702-2.68-4.357-5.363-5.593-8.541c-1.201-3.066-2.023-6.57-2.258-11.703c-0.233-5.136-0.289-6.788-0.289-19.879
			c0-13.087,0.055-14.741,0.289-19.875c0.234-5.138,1.057-8.636,2.258-11.701c1.235-3.18,2.891-5.859,5.593-8.542
			c2.695-2.68,5.396-4.337,8.585-5.556c3.085-1.197,6.614-2.02,11.772-2.253c5.172-0.225,6.823-0.289,19.995-0.289
			c13.171,0,14.82,0.064,19.994,0.289c5.163,0.233,8.682,1.057,11.766,2.253c3.194,1.219,5.895,2.876,8.592,5.556
			c2.696,2.683,4.355,5.361,5.591,8.542c1.201,3.064,2.018,6.563,2.258,11.701c0.235,5.134,0.294,6.788,0.294,19.875
			C155.074,138.352,155.015,140.003,154.78,145.14L154.78,145.14z M106.843,43.083c-45.43,0-82.259,36.817-82.259,82.249
			c0,45.43,36.829,82.258,82.259,82.258c45.425,0,82.253-36.828,82.253-82.258C189.097,79.9,152.269,43.083,106.843,43.083
			L106.843,43.083z"/>
	</g>
</g>
</svg>
