<?xml version="1.0" encoding="utf-8"?>
<!-- Generator: Adobe Illustrator 16.0.3, SVG Export Plug-In . SVG Version: 6.00 Build 0)  -->
<!DOCTYPE svg PUBLIC "-//W3C//DTD SVG 1.1//EN" "http://www.w3.org/Graphics/SVG/1.1/DTD/svg11.dtd">
<svg version="1.1" id="Capa_1" xmlns="http://www.w3.org/2000/svg" xmlns:xlink="http://www.w3.org/1999/xlink" x="0px" y="0px"
	 width="1500px" height="1500px" viewBox="0 0 1500 1500" enable-background="new 0 0 1500 1500" xml:space="preserve">
<g>
	<polygon fill="#3887A5" points="867.908,1029.575 685.067,1145.11 502.225,1029.575 501.955,1191.489 502.225,1325.053 
		584.189,1395.584 683.72,1395.584 684.381,1395.584 685.751,1395.584 686.413,1395.584 785.944,1395.584 867.908,1325.053 
		868.177,1192.295 	"/>
	<path fill="#41ADE3" d="M650.093,81.077"/>
	<polygon points="294.146,372.784 205.527,446.6 249.84,634.244 294.146,669.353 	"/>
	<polygon points="1079.146,372.784 1167.326,446.6 1123.243,634.244 1079.146,669.353 	"/>
	<path fill="#41ADE3" d="M624.242,1445.101"/>
	<polyline fill="#41ADE3" points="904.845,1095.157 964.731,900.584 904.146,900.584 	"/>
	<polygon fill="#41ADE3" points="294.146,289.596 294.146,762.211 510.146,902.466 510.146,153.754 	"/>
	<polygon fill="#41ADE3" points="1079.146,296.171 864.146,155.916 864.146,904.632 1079.146,768.8 	"/>
	<polygon points="688.328,39.811 510.146,153.754 510.146,902.466 685.964,1018.572 864.146,904.632 864.146,155.916 	"/>
	<polygon fill="#FFFFFF" points="314.145,506.427 504.222,736.584 863.873,736.584 1058.95,507.746 868.887,277.584 
		509.228,277.584 	"/>
	<polyline fill="#41ADE3" points="464.913,1095.306 383.927,1046.188 386.5,949.318 465.238,900.733 	"/>
	<path d="M386.5,949.318c0,0-116.32,208.318-132.358,305.777c0,0,32.534,45.8,71.394,29.607c0,0,56.901-115.96,139.702-186.434"/>
	<polygon points="905.059,900.733 793.146,971.556 793.146,1163.612 685.646,1231.92 578.146,1163.612 578.146,972.154 
		465.179,900.733 464.882,1095.402 465.223,1253.887 563.782,1336.584 683.447,1336.584 684.242,1336.584 685.89,1336.584 
		686.685,1336.584 806.351,1336.584 904.895,1253.887 905.304,1095.322 	"/>
	<polygon fill="#41ADE3" points="685.646,1231.92 793.146,1163.612 793.146,971.556 685.173,1039.641 578.146,972.154 
		578.146,1163.612 	"/>
	<polygon points="685.066,1043.29 720.764,1066.262 720.764,1101.146 649.718,1145.725 711.917,1083.737 644.322,1077.753 
		644.322,1188.163 615.666,1169.705 615.666,1086.95 	"/>
	<polygon fill="#FFFFFF" points="685.067,1214.363 649.371,1191.393 649.371,1156.511 720.415,1111.931 658.217,1173.917 
		725.811,1179.902 725.811,1069.493 754.466,1087.95 754.466,1170.707 	"/>
	<path fill="#41ADE3" d="M640.788,1404.02c2.986,17.661-7.225,34.109-22.803,36.744l-112.834,19.068
		c-15.579,2.631-30.628-9.551-33.611-27.211l-29.993-177.473c-2.983-17.661,7.227-34.111,22.805-36.745l112.834-19.068
		c15.576-2.633,30.627,9.55,33.612,27.211L640.788,1404.02z"/>
	<path fill="#41ADE3" d="M728.991,1404.02c-2.985,17.661,7.225,34.109,22.804,36.744l112.835,19.068
		c15.578,2.631,30.626-9.551,33.61-27.211l29.993-177.473c2.983-17.661-7.227-34.111-22.806-36.745l-112.832-19.068
		c-15.578-2.633-30.629,9.55-33.612,27.211L728.991,1404.02z"/>
	<path d="M903.646,1095.157c0,0,301.702-167.675,333.721-261.112c0,0-24.469-50.57-65.48-41.065c0,0-113.791,52.219-207.155,107.945
		"/>
	<path fill="#41ADE3" d="M1292.308,784.948c4.996-7.841,1.732-19.258-7.516-25.153l-66.976-42.684
		c-9.247-5.896-20.976-4.032-25.975,3.81l-50.224,78.808c-4.998,7.841-1.555,18.975,7.693,24.869l66.975,42.685
		c9.246,5.895,20.796,4.316,25.793-3.527L1292.308,784.948z"/>
	<path fill="#41ADE3" d="M218.996,1298.85c-3.251,7.688,1.341,17.307,10.407,21.145l65.655,27.788
		c9.066,3.838,19.17,0.439,22.423-7.248l32.699-77.257c3.254-7.688-1.457-17.029-10.522-20.866l-65.656-27.79
		c-9.066-3.837-19.052-0.715-22.305,6.973L218.996,1298.85z"/>
	<g>
		<path d="M663.291,506.895c0,55.683-29.613,100.822-66.137,100.822c-36.529,0-66.14-45.139-66.14-100.822
			c0-55.677,29.61-100.825,66.14-100.825C633.677,406.07,663.291,451.218,663.291,506.895z"/>
		<path d="M842.083,506.895c0,55.683-29.612,100.822-66.137,100.822c-36.529,0-66.14-45.139-66.14-100.822
			c0-55.677,29.61-100.825,66.14-100.825C812.47,406.07,842.083,451.218,842.083,506.895z"/>
	</g>
</g>
</svg>
