<?xml version="1.0" encoding="utf-8"?>
<!-- Generator: Adobe Illustrator 16.0.3, SVG Export Plug-In . SVG Version: 6.00 Build 0)  -->
<!DOCTYPE svg PUBLIC "-//W3C//DTD SVG 1.1//EN" "http://www.w3.org/Graphics/SVG/1.1/DTD/svg11.dtd">
<svg version="1.1" id="Capa_1" xmlns="http://www.w3.org/2000/svg" xmlns:xlink="http://www.w3.org/1999/xlink" x="0px" y="0px"
	 width="951.096px" height="226.771px" viewBox="0 0 951.096 226.771" enable-background="new 0 0 951.096 226.771"
	 xml:space="preserve">
<g>
	<circle fill="#FFFFFF" cx="106.576" cy="117.579" r="65.803"/>
	<g>
		<path fill="#FFFFFF" d="M270.058,86.448v2.48c0,9.92-3.996,16.947-11.712,19.841c8.13,3.031,11.712,10.334,11.712,19.979v7.44
			c0,14.743-6.89,24.388-21.771,24.388c-14.743,0-21.632-9.645-21.632-24.388v-6.614h10.058v7.303
			c0,8.681,3.583,13.917,11.299,13.917c7.854,0,11.299-5.099,11.299-14.881v-7.44c0-9.508-3.996-14.055-12.125-14.33h-5.787v-9.646
			h6.338c7.165-0.275,11.574-4.822,11.574-13.228v-4.409c0-9.92-3.445-15.019-11.299-15.019c-7.716,0-11.299,5.374-11.299,14.055
			v4.96h-10.058v-4.409c0-14.743,6.889-24.251,21.632-24.251C263.168,62.197,270.058,71.705,270.058,86.448z"/>
		<path fill="#FFFFFF" d="M279.702,86.448c0-14.743,7.303-24.251,22.046-24.251c14.881,0,22.184,9.508,22.184,24.251v49.741
			c0,14.743-7.303,24.388-22.184,24.388c-14.743,0-22.046-9.645-22.046-24.388V86.448z M290.311,136.877
			c0,8.681,3.721,13.917,11.437,13.917c7.854,0,11.437-5.236,11.437-13.917v-50.98c0-8.818-3.583-14.055-11.437-14.055
			c-7.716,0-11.437,5.236-11.437,14.055V136.877z"/>
		<path fill="#FFFFFF" d="M333.299,86.448c0-14.743,7.303-24.251,22.046-24.251c14.881,0,22.184,9.508,22.184,24.251v49.741
			c0,14.743-7.303,24.388-22.184,24.388c-14.743,0-22.046-9.645-22.046-24.388V86.448z M343.909,136.877
			c0,8.681,3.721,13.917,11.437,13.917c7.854,0,11.437-5.236,11.437-13.917v-50.98c0-8.818-3.583-14.055-11.437-14.055
			c-7.716,0-11.437,5.236-11.437,14.055V136.877z"/>
		<path fill="#FFFFFF" d="M419.828,102.431c3.031-5.236,7.854-7.992,14.33-7.992c12.4,0,17.912,9.095,17.912,22.873v18.877
			c0,14.743-7.027,24.388-21.771,24.388s-21.633-9.645-21.633-24.388v-6.477h10.059v7.165c0,8.681,3.582,13.917,11.299,13.917
			c7.716,0,11.298-5.236,11.298-13.917v-18.738c0-8.681-3.582-13.917-11.298-13.917c-5.925,0-9.921,3.307-10.886,10.334v2.205
			H409.08l2.618-53.6h38.029v9.646h-28.384L419.828,102.431z"/>
		<path fill="#FFFFFF" d="M505.667,86.31v1.791h-10.058v-2.48c0-8.68-3.583-13.778-11.437-13.778c-8.13,0-11.712,5.236-11.712,15.57
			v21.632c2.618-6.613,7.854-10.334,15.569-10.334c12.401,0,17.913,8.956,17.913,22.873v14.605c0,14.743-7.303,24.388-22.046,24.388
			c-14.882,0-22.184-9.645-22.184-24.388v-49.19c0-15.294,6.889-24.802,22.184-24.802C498.778,62.197,505.667,71.567,505.667,86.31z
			 M472.46,122.41v14.468c0,8.681,3.582,13.917,11.437,13.917c7.716,0,11.436-5.236,11.436-13.917V122.41
			c0-8.68-3.72-13.916-11.436-13.916C476.042,108.494,472.46,113.73,472.46,122.41z"/>
		<path fill="#FFFFFF" d="M526.747,102.431c3.031-5.236,7.854-7.992,14.33-7.992c12.4,0,17.912,9.095,17.912,22.873v18.877
			c0,14.743-7.027,24.388-21.771,24.388s-21.632-9.645-21.632-24.388v-6.477h10.059v7.165c0,8.681,3.582,13.917,11.298,13.917
			s11.299-5.236,11.299-13.917v-18.738c0-8.681-3.583-13.917-11.299-13.917c-5.925,0-9.921,3.307-10.885,10.334v2.205H516
			l2.618-53.6h38.029v9.646h-28.385L526.747,102.431z"/>
		<path fill="#FFFFFF" d="M633.943,86.448v49.189c0,15.295-6.889,24.939-22.321,24.939c-14.743,0-21.771-9.507-21.771-24.25v-1.791
			h10.059v2.479c0,8.681,3.721,13.779,11.437,13.779c8.268,0,11.85-5.236,11.85-15.433V113.73
			c-2.618,6.613-7.854,10.195-15.569,10.195c-12.401,0-17.913-8.818-17.913-22.734V86.448c0-14.743,7.165-24.251,22.046-24.251
			S633.943,71.705,633.943,86.448z M600.324,85.897v14.467c0,8.681,3.72,13.917,11.436,13.917c7.854,0,11.437-5.236,11.437-13.917
			V85.897c0-8.818-3.582-13.917-11.437-13.917C604.043,71.98,600.324,77.079,600.324,85.897z"/>
		<path fill="#FFFFFF" d="M687.678,86.585c0,29.073-32.655,39.545-32.793,61.729v1.516h31.69v9.783h-42.301v-8.268
			c0-31.14,32.656-37.202,32.656-64.347c0-9.92-3.308-15.156-11.299-15.156c-7.854,0-11.299,5.649-11.299,14.192v8.543h-10.059
			v-7.854c0-14.743,6.752-24.526,21.633-24.526C680.926,62.197,687.678,71.842,687.678,86.585z"/>
		<path fill="#FFFFFF" d="M708.344,102.431c3.031-5.236,7.854-7.992,14.33-7.992c12.4,0,17.912,9.095,17.912,22.873v18.877
			c0,14.743-7.027,24.388-21.771,24.388s-21.632-9.645-21.632-24.388v-6.477h10.059v7.165c0,8.681,3.582,13.917,11.298,13.917
			s11.299-5.236,11.299-13.917v-18.738c0-8.681-3.583-13.917-11.299-13.917c-5.925,0-9.921,3.307-10.885,10.334v2.205h-10.059
			l2.618-53.6h38.029v9.646H709.86L708.344,102.431z"/>
		<path fill="#FFFFFF" d="M794.184,86.448v49.189c0,15.295-6.889,24.939-22.321,24.939c-14.743,0-21.771-9.507-21.771-24.25v-1.791
			h10.059v2.479c0,8.681,3.721,13.779,11.437,13.779c8.268,0,11.85-5.236,11.85-15.433V113.73
			c-2.618,6.613-7.854,10.195-15.569,10.195c-12.401,0-17.913-8.818-17.913-22.734V86.448c0-14.743,7.165-24.251,22.046-24.251
			S794.184,71.705,794.184,86.448z M760.565,85.897v14.467c0,8.681,3.72,13.917,11.436,13.917c7.854,0,11.437-5.236,11.437-13.917
			V85.897c0-8.818-3.582-13.917-11.437-13.917C764.285,71.98,760.565,77.079,760.565,85.897z"/>
	</g>
	<g>
		<path fill-rule="evenodd" clip-rule="evenodd" fill="#3FA8CD" d="M130.46,128.651c-1.001,2.796-5.772,5.349-8.073,5.688
			c-2.064,0.305-4.676,0.438-7.536-0.474c-1.73-0.547-3.961-1.28-6.813-2.52c-12-5.18-19.835-17.261-20.433-18.051
			c-0.598-0.799-4.888-6.48-4.888-12.37c0-5.887,3.089-8.776,4.187-9.974c1.101-1.194,2.397-1.488,3.189-1.488
			c0.802,0,1.6,0,2.296,0.039c0.728,0.03,1.714-0.288,2.687,2.053c1.001,2.394,3.389,8.271,3.688,8.865
			c0.3,0.605,0.495,1.302,0.1,2.103c-0.399,0.794-0.594,1.294-1.196,1.996c-0.599,0.695-1.262,1.558-1.8,2.094
			c-0.592,0.59-1.215,1.24-0.518,2.436c0.698,1.196,3.095,5.118,6.658,8.288c4.56,4.069,8.418,5.326,9.618,5.929
			c1.191,0.604,1.889,0.499,2.587-0.294c0.703-0.808,2.991-3.499,3.788-4.693c0.797-1.195,1.594-0.991,2.691-0.594
			c1.097,0.404,6.973,3.296,8.174,3.89c1.196,0.59,1.993,0.9,2.287,1.397C131.458,123.464,131.458,125.861,130.46,128.651
			L130.46,128.651z M107.058,71.792c-21.943,0-39.794,17.835-39.803,39.763c0,7.518,2.103,14.836,6.084,21.169l0.946,1.501
			l-4.016,14.681l15.056-3.955l1.45,0.864c6.11,3.623,13.111,5.538,20.249,5.543h0.025c21.926,0,39.768-17.84,39.778-39.768
			c0.006-10.632-4.125-20.626-11.641-28.139C127.668,75.93,117.687,71.792,107.058,71.792L107.058,71.792z"/>
		<path fill-rule="evenodd" clip-rule="evenodd" fill="#3FA8CD" d="M107.048,159.44h-0.025c-8.014-0.011-15.883-2.013-22.875-5.824
			l-25.377,6.663l6.798-24.814c-4.196-7.246-6.394-15.481-6.394-23.91c0.011-26.383,21.485-47.847,47.868-47.847
			c12.802,0.003,24.822,4.983,33.854,14.031c9.039,9.046,14.018,21.061,14.008,33.851
			C154.896,137.972,133.419,159.44,107.048,159.44L107.048,159.44z M106.843,31.291c-45.341,0-82.099,36.754-82.099,82.087
			c0,45.345,36.758,82.104,82.099,82.104c45.334,0,82.094-36.759,82.094-82.104C188.938,68.044,152.178,31.291,106.843,31.291
			L106.843,31.291z"/>
	</g>
</g>
</svg>
